# xmcd
#
# Track frame offsets:
#	150
#	12250
#	24812
#	38075
#	51325
#	64150
#	77037
#	90450
#	103012
#	116287
#	129750
#	144587
#	155525
#	167112
#
# Disc length: 2416 seconds
#
# Revision: 0
# Processed by: cddbd v1.5.1PL2 Copyright (c) Steve Scherf et al.
# Submitted via: dBpowerAMP V4.0
#
DISCID=a6096e0e
DTITLE=Gene Autry - Gene Autry Collection [CDThree)
DYEAR=2000
DGENRE=Country
TTITLE0=Gallivantin' Galveston Gal
TTITLE1=Oklahoma Hills
TTITLE2=Memories Of That Silver Haired Daddy Of Mine
TTITLE3=End Of My Round Up Days
TTITLE4=My Star Of The Sky
TTITLE5=My Rose Of The Prairie
TTITLE6=Down A Mountain Trail
TTITLE7=Don't Take Your Spite Out On Me
TTITLE8=I Don't Belong In Your World
TTITLE9=Panhandle Pete
TTITLE10=Riders In The Sky
TTITLE11=Diesel Smoke, Dangerous Curves
TTITLE12=Here Comes Santa Claus
TTITLE13=Rudolph The Red Nosed Reindeer
EXTD=Artist: Gene Autry\nAlbum: Gene Autry Collection [CDThree]\nGenre: Country\nComment: 42 All-Time Classics\nYear: 2000\n\n 1  Gallivantin' Galveston Gal   [2.41   ]\n 2  Oklahoma Hills   [2.47   ]\n 3  Memories Of That Silver Haired Daddy Of Mine
EXTD=[2.56   ]\n 4  End Of My Round Up Days   [2.56   ]\n 5  My Star Of The Sky   [2.51   ]\n 6  My Rose Of The Prairie   [2.51   ]\n 7  Down A Mountain Trail   [2.58   ]\n 8  Don't Take Your Spite Out On Me   [2.47   ]\n 9  I Don't Belong In Your Wo
EXTD=rld   [2.57   ]\n10  Panhandle Pete   [2.59   ]\n11  Riders In The Sky   [3.17   ]\n12  Diesel Smoke, Dangerous Curves   [2.25   ]\n13  Here Comes Santa Claus   [2.34   ]\n14  Rudolph The Red Nosed Reindeer   [3.08   ]\n\n\n
EXTT0=
EXTT1=
EXTT2=
EXTT3=
EXTT4=
EXTT5=
EXTT6=
EXTT7=
EXTT8=
EXTT9=
EXTT10=
EXTT11=
EXTT12=
EXTT13=
PLAYORDER=
